<svg width="28" height="28" viewBox="0 0 28 28" fill="none" xmlns="http://www.w3.org/2000/svg">
    <path fill-rule="evenodd" clip-rule="evenodd" d="M7.30754 7.30754C7.71759 6.89749 8.38241 6.89749 8.79246 7.30754L14 12.5151L19.2075 7.30754C19.6176 6.89749 20.2824 6.89749 20.6925 7.30754C21.1025 7.71759 21.1025 8.38241 20.6925 8.79246L15.4849 14L20.6925 19.2075C21.1025 19.6176 21.1025 20.2824 20.6925 20.6925C20.2824 21.1025 19.6176 21.1025 19.2075 20.6925L14 15.4849L8.79246 20.6925C8.38241 21.1025 7.71759 21.1025 7.30754 20.6925C6.89749 20.2824 6.89749 19.6176 7.30754 19.2075L12.5151 14L7.30754 8.79246C6.89749 8.38241 6.89749 7.71759 7.30754 7.30754Z" fill="white"/>
</svg>
