<svg width="24" height="24" viewBox="0 0 21 21" fill="none" xmlns="http://www.w3.org/2000/svg">
    <path d="M8.75 4.59375V4.8125H12.25V4.59375C12.25 4.12962 12.0656 3.6845 11.7374 3.35631C11.4092 3.02812 10.9641 2.84375 10.5 2.84375C10.0359 2.84375 9.59075 3.02812 9.26256 3.35631C8.93437 3.6845 8.75 4.12962 8.75 4.59375ZM7.65625 4.8125V4.59375C7.65625 3.83954 7.95586 3.11622 8.48917 2.58292C9.02247 2.04961 9.74579 1.75 10.5 1.75C11.2542 1.75 11.9775 2.04961 12.5108 2.58292C13.0441 3.11622 13.3438 3.83954 13.3438 4.59375V4.8125H18.2656C18.4107 4.8125 18.5498 4.87012 18.6523 4.97268C18.7549 5.07523 18.8125 5.21433 18.8125 5.35938C18.8125 5.50442 18.7549 5.64352 18.6523 5.74607C18.5498 5.84863 18.4107 5.90625 18.2656 5.90625H16.9894L16.1144 16.3432C16.048 17.1358 15.6861 17.8745 15.1007 18.4129C14.5152 18.9513 13.7489 19.25 12.9535 19.25H8.0465C7.25121 19.2499 6.48496 18.9511 5.8996 18.4127C5.31424 17.8744 4.95248 17.1358 4.886 16.3432L4.011 5.90625H2.73438C2.58933 5.90625 2.45023 5.84863 2.34768 5.74607C2.24512 5.64352 2.1875 5.50442 2.1875 5.35938C2.1875 5.21433 2.24512 5.07523 2.34768 4.97268C2.45023 4.87012 2.58933 4.8125 2.73438 4.8125H7.65625ZM5.97581 16.2518C6.01936 16.771 6.25638 17.255 6.6399 17.6077C7.02341 17.9604 7.52544 18.1562 8.0465 18.1562H12.9535C13.4746 18.1563 13.9768 17.9606 14.3604 17.6078C14.744 17.2551 14.9811 16.7711 15.0246 16.2518L15.8918 5.90625H5.10825L5.97581 16.2518ZM9.40625 8.85938C9.40625 8.78756 9.39211 8.71645 9.36462 8.6501C9.33714 8.58375 9.29686 8.52346 9.24607 8.47268C9.19529 8.42189 9.135 8.38161 9.06865 8.35413C9.0023 8.32664 8.93119 8.3125 8.85938 8.3125C8.78756 8.3125 8.71645 8.32664 8.6501 8.35413C8.58375 8.38161 8.52346 8.42189 8.47268 8.47268C8.42189 8.52346 8.38161 8.58375 8.35413 8.6501C8.32664 8.71645 8.3125 8.78756 8.3125 8.85938V15.2031C8.3125 15.2749 8.32664 15.3461 8.35413 15.4124C8.38161 15.4788 8.42189 15.539 8.47268 15.5898C8.52346 15.6406 8.58375 15.6809 8.6501 15.7084C8.71645 15.7359 8.78756 15.75 8.85938 15.75C8.93119 15.75 9.0023 15.7359 9.06865 15.7084C9.135 15.6809 9.19529 15.6406 9.24607 15.5898C9.29686 15.539 9.33714 15.4788 9.36462 15.4124C9.39211 15.3461 9.40625 15.2749 9.40625 15.2031V8.85938ZM12.1406 8.3125C12.4425 8.3125 12.6875 8.5575 12.6875 8.85938V15.2031C12.6875 15.3482 12.6299 15.4873 12.5273 15.5898C12.4248 15.6924 12.2857 15.75 12.1406 15.75C11.9956 15.75 11.8565 15.6924 11.7539 15.5898C11.6514 15.4873 11.5938 15.3482 11.5938 15.2031V8.85938C11.5938 8.5575 11.8387 8.3125 12.1406 8.3125Z" fill="#DC143C"/>
</svg>
