<svg width="138" height="138" viewBox="0 0 139 138" fill="none" xmlns="http://www.w3.org/2000/svg">
    <path d="M70.5656 76.223C70.4852 76.223 70.3848 76.223 70.3044 76.2029C70.0029 76.1627 69.5608 76.1627 69.179 76.2029C69.0785 76.223 68.978 76.223 68.8976 76.223C62.6678 76.002 56.84 73.4297 52.5193 68.9482C48.1785 64.4668 45.7871 58.5585 45.7871 52.3086C45.7871 45.898 48.279 39.8892 52.7806 35.3676C57.3022 30.8259 63.331 28.334 69.7618 28.334C82.985 28.334 93.7364 39.0854 93.7364 52.3086C93.6762 65.2907 83.5276 75.7809 70.6259 76.223C70.6058 76.223 70.5857 76.223 70.5656 76.223ZM69.7618 32.3532C58.7491 32.3532 49.8063 41.296 49.8063 52.3086C49.8063 63.0601 58.1864 71.7617 68.8976 72.2038C69.4804 72.1435 70.1034 72.1435 70.646 72.2038C81.2969 71.7617 89.6569 63.0601 89.7172 52.3086C89.7172 41.296 80.7744 32.3532 69.7618 32.3532Z" fill="white"/>
    <path d="M82.2392 132.76C83.3646 132.539 84.4698 132.297 85.5751 132.016C84.4899 132.297 83.3646 132.539 82.2392 132.76ZM76.4314 133.624C75.7079 133.704 74.9644 133.764 74.2208 133.805C74.9443 133.764 75.6878 133.704 76.4314 133.624ZM65.3182 133.805C58.1841 133.322 51.2309 131.654 44.7197 128.941C51.1304 131.634 58.0635 133.322 65.3182 133.805Z" fill="white"/>
    <path d="M112.787 117.644C105.994 123.652 97.9359 128.274 89.0735 131.028C97.755 128.335 105.854 123.793 112.787 117.644ZM26.7354 117.644C30.8551 121.301 35.3968 124.376 40.1997 126.848C35.3365 124.336 30.8149 121.241 26.7354 117.644Z" fill="white"/>
    <path d="M118.553 20.1966C105.511 7.17431 88.1881 0 69.76 0C51.3318 0 34.009 7.17431 20.9666 20.1966C7.94433 33.239 0.77002 50.5618 0.77002 68.9899C0.77002 87.4181 7.94433 104.741 20.9867 117.783C33.0645 129.861 48.8198 136.915 65.7407 137.879C66.002 137.9 66.2431 137.9 66.5044 137.92C66.5446 137.92 66.5647 137.92 66.6049 137.92C66.846 137.94 67.0872 137.94 67.3484 137.96C67.6097 137.96 67.8709 137.98 68.1322 137.98H68.1523C68.6949 138 69.2375 138 69.76 138C70.3026 138 70.8452 138 71.3677 137.98H71.3878C71.649 137.98 71.9102 137.96 72.1715 137.96C72.4127 137.96 72.6337 137.94 72.8749 137.94C72.9352 137.94 72.9753 137.94 73.0356 137.94C73.2768 137.92 73.538 137.92 73.7792 137.9C90.7001 136.935 106.455 129.881 118.533 117.803C131.556 104.781 138.73 87.4583 138.73 69.01C138.73 50.5618 131.576 33.239 118.553 20.1966ZM73.7591 133.84C73.5983 133.84 73.4376 133.86 73.2768 133.86C73.116 133.86 72.9552 133.88 72.7744 133.88C72.7342 133.88 72.694 133.88 72.6538 133.88C72.493 133.88 72.3122 133.9 72.1313 133.9C71.8902 133.9 71.649 133.92 71.4279 133.92C71.1466 133.92 70.8653 133.941 70.5839 133.941C70.3026 133.941 70.0212 133.941 69.7399 133.941C69.4585 133.941 69.1772 133.941 68.8958 133.941C68.6145 133.941 68.3331 133.941 68.0518 133.92C67.8106 133.92 67.5896 133.9 67.3484 133.9C67.1676 133.9 66.9867 133.88 66.8058 133.88C66.7857 133.88 66.7656 133.88 66.7255 133.88C66.5446 133.88 66.3637 133.86 66.1829 133.86C66.0422 133.86 65.9015 133.84 65.7608 133.84C65.6001 133.84 65.4192 133.82 65.2584 133.8C58.0037 133.318 51.0706 131.63 44.6599 128.937C44.459 128.856 44.258 128.776 44.057 128.675C44.0168 128.655 43.9968 128.635 43.9566 128.635C43.7556 128.555 43.5546 128.474 43.3738 128.374C43.3537 128.374 43.3336 128.354 43.3135 128.354C43.1326 128.273 42.9317 128.193 42.7508 128.093C42.59 128.032 42.4494 127.952 42.2886 127.872C42.0474 127.771 41.8063 127.65 41.5651 127.53C41.324 127.409 41.0828 127.309 40.8618 127.188C40.6206 127.068 40.3996 126.947 40.1584 126.827C35.3353 124.355 30.8137 121.28 26.694 117.623C27.6184 112.116 31.4367 106.891 37.5258 102.792C55.331 90.955 84.2091 90.955 101.874 102.792C107.963 106.891 111.781 112.116 112.725 117.623C105.792 123.772 97.7137 128.294 89.012 131.007C88.992 131.007 88.9718 131.007 88.9718 131.027C88.7709 131.087 88.5498 131.147 88.3489 131.228C88.2886 131.248 88.2082 131.268 88.1479 131.288C87.9268 131.348 87.7058 131.429 87.4646 131.489C87.2235 131.549 87.0024 131.63 86.7613 131.69C86.7211 131.71 86.6809 131.71 86.6608 131.73C86.4196 131.79 86.1785 131.871 85.9172 131.931C85.7766 131.971 85.656 131.991 85.5153 132.031C84.41 132.313 83.3047 132.554 82.1794 132.775C81.9382 132.815 81.6971 132.875 81.4559 132.916C81.2148 132.956 80.9736 132.996 80.7324 133.036C80.4913 133.076 80.2501 133.117 80.009 133.157C79.7678 133.197 79.5267 133.237 79.2855 133.277C79.0444 133.318 78.8032 133.358 78.5621 133.378C77.8386 133.478 77.0951 133.559 76.3716 133.639C75.6481 133.72 74.9046 133.78 74.161 133.82C74.0605 133.82 73.8998 133.84 73.7591 133.84ZM116.142 114.447C114.434 108.8 110.274 103.595 104.165 99.4758C85.2742 86.8152 54.4065 86.8152 35.3554 99.4758C29.2462 103.595 25.0863 108.8 23.3982 114.447C11.8832 102.711 4.78924 86.6544 4.78924 68.9899C4.78924 33.1586 33.9286 4.01922 69.76 4.01922C105.591 4.01922 134.731 33.1586 134.731 68.9899C134.731 86.6745 127.637 102.711 116.142 114.447Z" fill="white"/>
</svg>
