<svg width="20" height="21" viewBox="0 0 20 21" fill="none" xmlns="http://www.w3.org/2000/svg">
    <path d="M16.475 10.0301H13.1083C11.4333 10.0301 10.625 9.28083 10.625 7.73173V3.90948C10.625 2.36038 11.4417 1.61108 13.1083 1.61108H16.475C18.15 1.61108 18.9583 2.36038 18.9583 3.90948V7.72331C18.9583 9.28083 18.1417 10.0301 16.475 10.0301ZM13.1083 2.87394C11.9917 2.87394 11.875 3.19386 11.875 3.90948V7.72331C11.875 8.44735 11.9917 8.75885 13.1083 8.75885H16.475C17.5917 8.75885 17.7083 8.43893 17.7083 7.72331V3.90948C17.7083 3.18544 17.5917 2.87394 16.475 2.87394H13.1083Z" fill="white"/>
    <path d="M16.475 19.712H13.1083C11.4333 19.712 10.625 18.8869 10.625 17.2031V13.8018C10.625 12.1096 11.4417 11.293 13.1083 11.293H16.475C18.15 11.293 18.9583 12.118 18.9583 13.8018V17.2031C18.9583 18.8869 18.1417 19.712 16.475 19.712ZM13.1083 12.5558C12.125 12.5558 11.875 12.8084 11.875 13.8018V17.2031C11.875 18.1966 12.125 18.4492 13.1083 18.4492H16.475C17.4583 18.4492 17.7083 18.1966 17.7083 17.2031V13.8018C17.7083 12.8084 17.4583 12.5558 16.475 12.5558H13.1083Z" fill="white"/>
    <path d="M6.89199 10.0301H3.52533C1.85033 10.0301 1.04199 9.28083 1.04199 7.73173V3.90948C1.04199 2.36038 1.85866 1.61108 3.52533 1.61108H6.89199C8.56699 1.61108 9.37532 2.36038 9.37532 3.90948V7.72331C9.37532 9.28083 8.55866 10.0301 6.89199 10.0301ZM3.52533 2.87394C2.40866 2.87394 2.29199 3.19386 2.29199 3.90948V7.72331C2.29199 8.44735 2.40866 8.75885 3.52533 8.75885H6.89199C8.00866 8.75885 8.12532 8.43893 8.12532 7.72331V3.90948C8.12532 3.18544 8.00866 2.87394 6.89199 2.87394H3.52533Z" fill="white"/>
    <path d="M6.89199 19.712H3.52533C1.85033 19.712 1.04199 18.8869 1.04199 17.2031V13.8018C1.04199 12.1096 1.85866 11.293 3.52533 11.293H6.89199C8.56699 11.293 9.37532 12.118 9.37532 13.8018V17.2031C9.37532 18.8869 8.55866 19.712 6.89199 19.712ZM3.52533 12.5558C2.54199 12.5558 2.29199 12.8084 2.29199 13.8018V17.2031C2.29199 18.1966 2.54199 18.4492 3.52533 18.4492H6.89199C7.87532 18.4492 8.12532 18.1966 8.12532 17.2031V13.8018C8.12532 12.8084 7.87532 12.5558 6.89199 12.5558H3.52533Z" fill="white"/>
</svg>
