<svg width="151" height="161" viewBox="0 0 151 161" fill="none" xmlns="http://www.w3.org/2000/svg">
    <rect opacity="0.1" x="5.5" width="140" height="140" rx="39.2683" fill="white"/>
    <g filter="url(#filter0_d_1030_4345)">
        <path d="M51.6754 31.7796C56.4283 31.7836 61.0547 30.2482 64.8622 27.4032L71.3566 22.5506C73.7822 20.8516 77.0118 20.8517 79.4374 22.5506L86.3504 27.5638C90.0826 30.2705 94.5708 31.7362 99.1811 31.754L104.677 31.7752C110.122 31.7752 114.536 36.1893 114.536 41.6345C114.536 46.6014 116.734 51.3137 120.54 54.5058L120.776 54.7039C121.254 55.1053 121.531 55.6979 121.531 56.3225V112.103C121.531 115.992 118.378 119.145 114.488 119.145H36.5423C32.6532 119.145 29.5 115.992 29.5 112.103L29.5034 56.3224C29.5034 55.6978 29.7799 55.1053 30.2579 54.7039L30.4894 54.5097C34.2958 51.3166 36.4942 46.6028 36.4942 41.6345C36.4942 36.1893 40.908 31.7752 46.3535 31.7752L51.6754 31.7796Z" fill="#FF0000" fill-opacity="0.01"/>
    </g>
    <mask id="mask0_1030_4345" style="mask-type:alpha" maskUnits="userSpaceOnUse" x="29" y="18" width="93" height="102">
        <path d="M57.5903 31.7752L71.4748 20.1277C73.9004 18.4288 77.13 18.4288 79.5556 20.1277L93.4412 31.7752H104.677C110.122 31.7752 114.536 36.1894 114.536 41.6345V49.4702L120.776 54.7039C121.254 55.1053 121.531 55.6979 121.531 56.3226V112.103C121.531 115.992 118.378 119.145 114.488 119.145H36.5423C32.6532 119.145 29.5 115.992 29.5 112.103L29.5034 56.3224C29.5034 55.6979 29.7799 55.1054 30.2579 54.704L36.4942 49.4724V41.6345C36.4942 36.1894 40.908 31.7752 46.3535 31.7752H57.5903Z" fill="#EBE9FF"/>
    </mask>
    <g mask="url(#mask0_1030_4345)">
        <path d="M69.2262 23.087L32.6277 52.8011C30.6514 54.4056 29.5037 56.8156 29.5035 59.3613L29.5005 112.103C29.5005 115.992 32.6535 119.145 36.5428 119.145H114.489C118.378 119.145 121.531 115.992 121.531 112.103V59.3714C121.531 56.82 120.378 54.4051 118.395 52.8006L81.6405 23.0752C78.0191 20.1464 72.842 20.1513 69.2262 23.087Z" fill="#8B87D6"/>
        <path d="M104.677 31.7754C110.122 31.7754 114.537 36.1895 114.537 41.6347L114.537 117.737C114.537 118.515 113.906 119.145 113.128 119.145L37.903 119.145C37.1251 119.145 36.4945 118.515 36.4945 117.737L36.4945 41.6347C36.4945 36.1895 40.9087 31.7754 46.3538 31.7754L104.677 31.7754Z" fill="#F9F9FF"/>
        <rect x="47.1235" y="65.6855" width="44.4953" height="6.42546" rx="3.21273" fill="#8B87D6"/>
        <rect x="47.1235" y="43.8291" width="44.0601" height="6.42546" rx="3.21273" fill="#8B87D6"/>
        <rect x="47.1235" y="54.7573" width="33.4123" height="6.42546" rx="3.21273" fill="#8B87D6"/>
        <path d="M64.9431 87.0342L29.0791 58.0918L29.3281 116.26L64.9431 87.0342Z" fill="#BDB9FF"/>
        <path d="M86.2717 87.5444L122.603 58.5103L122.099 113.834L86.2717 87.5444Z" fill="#BDB9FF"/>
        <path d="M14.2831 117.385L67.5725 80.06C72.4236 76.6622 78.882 76.6622 83.7331 80.06L147.996 125.071C149.124 125.861 148.565 127.634 147.188 127.634L17.5152 127.634C12.0077 127.634 9.77207 120.545 14.2831 117.385Z" fill="#BDB9FF"/>
    </g>
    <defs>
        <filter id="filter0_d_1030_4345" x="0.421291" y="4.17124" width="150.188" height="156.026" filterUnits="userSpaceOnUse" color-interpolation-filters="sRGB">
            <feFlood flood-opacity="0" result="BackgroundImageFix"/>
            <feColorMatrix in="SourceAlpha" type="matrix" values="0 0 0 0 0 0 0 0 0 0 0 0 0 0 0 0 0 0 127 0" result="hardAlpha"/>
            <feOffset dy="11.9736"/>
            <feGaussianBlur stdDeviation="14.5394"/>
            <feColorMatrix type="matrix" values="0 0 0 0 0.290196 0 0 0 0 0.227451 0 0 0 0 1 0 0 0 0.15 0"/>
            <feBlend mode="normal" in2="BackgroundImageFix" result="effect1_dropShadow_1030_4345"/>
            <feBlend mode="normal" in="SourceGraphic" in2="effect1_dropShadow_1030_4345" result="shape"/>
        </filter>
    </defs>
</svg>
