<svg width="20" height="20" viewBox="0 0 20 20" fill="none" xmlns="http://www.w3.org/2000/svg">
    <path fill-rule="evenodd" clip-rule="evenodd" d="M6.17859 4.17956C5.90075 4.17956 5.63428 4.28232 5.43781 4.46524C5.24135 4.64816 5.13097 4.89625 5.13097 5.15493V15.7954C5.13097 16.054 5.24135 16.3021 5.43781 16.485C5.63428 16.668 5.90075 16.7707 6.17859 16.7707H8.66907C9.14245 16.7707 9.52621 17.128 9.52621 17.5688C9.52621 18.0095 9.14245 18.3668 8.66907 18.3668H6.17859C5.44609 18.3668 4.74359 18.0959 4.22563 17.6136C3.70767 17.1314 3.41669 16.4773 3.41669 15.7954V5.15493C3.41669 4.47295 3.70767 3.81889 4.22563 3.33665C4.74359 2.85441 5.44609 2.5835 6.17859 2.5835H13.7976C14.5301 2.5835 15.2326 2.85441 15.7506 3.33665C16.2686 3.81889 16.5595 4.47294 16.5595 5.15493V12.2485C16.5595 12.6893 16.1758 13.0466 15.7024 13.0466C15.229 13.0466 14.8453 12.6893 14.8453 12.2485V5.15493C14.8453 4.89625 14.7349 4.64816 14.5384 4.46524C14.342 4.28232 14.0755 4.17956 13.7976 4.17956H6.17859ZM7.22621 6.92834C7.22621 6.4876 7.60997 6.1303 8.08335 6.1303H11.8929C12.3663 6.1303 12.75 6.4876 12.75 6.92834C12.75 7.36908 12.3663 7.72637 11.8929 7.72637H8.08335C7.60997 7.72637 7.22621 7.36908 7.22621 6.92834ZM7.22621 10.4751C7.22621 10.0344 7.60997 9.67711 8.08335 9.67711H9.98812C10.4615 9.67711 10.8453 10.0344 10.8453 10.4751C10.8453 10.9159 10.4615 11.2732 9.98812 11.2732H8.08335C7.60997 11.2732 7.22621 10.9159 7.22621 10.4751ZM19.1656 14.3444C19.5004 14.656 19.5004 15.1613 19.1656 15.4729L15.3561 19.0198C15.1954 19.1694 14.9773 19.2535 14.75 19.2535C14.5227 19.2535 14.3047 19.1694 14.1439 19.0198L12.2392 17.2464C11.9044 16.9347 11.9044 16.4294 12.2392 16.1178C12.5739 15.8061 13.1166 15.8061 13.4514 16.1178L14.75 17.3269L17.9535 14.3444C18.2882 14.0327 18.8309 14.0327 19.1656 14.3444Z" fill="white"/>
</svg>
