<svg width="20" height="21" viewBox="0 0 20 21" fill="none" xmlns="http://www.w3.org/2000/svg">
    <path d="M10.1334 9.56071C10.05 9.55229 9.95005 9.55229 9.85838 9.56071C7.87505 9.49336 6.30005 7.85165 6.30005 5.83107C6.30005 3.76841 7.95005 2.09302 10 2.09302C12.0417 2.09302 13.7001 3.76841 13.7001 5.83107C13.6917 7.85165 12.1167 9.49336 10.1334 9.56071Z" stroke="white" stroke-width="1.5" stroke-linecap="round" stroke-linejoin="round"/>
    <path d="M5.9666 12.6674C3.94993 14.0312 3.94993 16.2539 5.9666 17.6093C8.25827 19.1584 12.0166 19.1584 14.3083 17.6093C16.3249 16.2455 16.3249 14.0228 14.3083 12.6674C12.0249 11.1267 8.2666 11.1267 5.9666 12.6674Z" stroke="white" stroke-width="1.5" stroke-linecap="round" stroke-linejoin="round"/>
</svg>
