<svg width="140" height="140" viewBox="0 0 140 140" fill="none" xmlns="http://www.w3.org/2000/svg">
    <rect opacity="0.1" x="0.5" y="0.5" width="140" height="140" rx="39.2683" fill="white"/>
    <path d="M77.8471 24.0121C73.5217 20.6626 67.4784 20.6626 63.1529 24.0121L22.5 55.4923L118.5 55.4923L77.8471 24.0121Z" fill="#8B87D6"/>
    <path d="M70.5 92.6618L118.5 55.4923L22.5 55.4923L70.5 92.6618Z" fill="#8B87D6"/>
    <rect x="52.9492" y="68.3228" width="36" height="36" rx="2" fill="white"/>
    <rect x="1.5" y="-1.5" width="19" height="21" rx="8.5" transform="matrix(1 0 0 -1 59.9492 76.3228)" stroke="white" stroke-width="3"/>
    <circle cx="70.5" cy="79.3228" r="3" fill="#8B87D6"/>
    <path d="M22.7189 55.3228L22.5 55.4922V55.3228H22.7189Z" fill="#BDB9FF"/>
    <path d="M118.281 55.3228L118.5 55.4922L77.8471 86.9724C73.5217 90.3219 67.4784 90.3219 63.1529 86.9724L22.5 55.4922V108.323C22.5 114.95 27.8726 120.323 34.5 120.323H106.5C113.127 120.323 118.5 114.95 118.5 108.323V55.4922V55.3228H118.281Z" fill="#BDB9FF"/>
</svg>
