<svg width="20" height="20" viewBox="0 0 20 20" fill="none" xmlns="http://www.w3.org/2000/svg">
    <g clip-path="url(#clip0_97_346)">
        <path d="M19.8574 10.0268L10.4749 0.199321C10.3568 0.0761963 10.1943 0.00744629 10.0243 0.00744629C9.85426 0.00744629 9.69114 0.0768213 9.57301 0.199321L0.142385 10.0268C-0.0969902 10.2756 -0.0882402 10.6712 0.16051 10.9106C0.409885 11.1493 0.804885 11.1424 1.04426 10.8924L1.88426 10.0168V19.3687C1.88426 19.7137 2.16426 19.9937 2.50926 19.9937H6.87551C7.21989 19.9937 7.49926 19.7156 7.50051 19.3706L7.51988 13.1274H12.5005V19.3687C12.5005 19.7137 12.7805 19.9937 13.1255 19.9937H17.4899C17.8349 19.9937 18.1149 19.7137 18.1149 19.3687V10.0137L18.9543 10.8931C19.0774 11.0206 19.2411 11.0856 19.4055 11.0856C19.5611 11.0856 19.7174 11.0281 19.838 10.9112C20.0868 10.6724 20.0949 10.2768 19.8561 10.0281L19.8574 10.0268ZM16.8655 8.88307V18.7431H13.7511V12.5018C13.7511 12.1568 13.4711 11.8768 13.1261 11.8768H6.89801C6.55363 11.8768 6.27426 12.1549 6.27301 12.4999L6.25363 18.7431H3.13551V8.88245C3.13551 8.8312 3.12738 8.7812 3.11551 8.73307L10.0249 1.53307L16.8886 8.72495C16.8755 8.77557 16.8661 8.82807 16.8661 8.88245L16.8655 8.88307Z" fill="white"/>
    </g>
    <defs>
        <clipPath id="clip0_97_346">
            <rect width="20" height="20" fill="white"/>
        </clipPath>
    </defs>
</svg>
